<?xml version="1.0" encoding="utf-8"?>
<!-- Generator: Adobe Illustrator 19.2.1, SVG Export Plug-In . SVG Version: 6.00 Build 0)  -->
<svg version="1.1" id="Layer_1" xmlns="http://www.w3.org/2000/svg" xmlns:xlink="http://www.w3.org/1999/xlink" x="0px" y="0px"
	 viewBox="0 0 875.6 116" style="enable-background:new 0 0 875.6 116;" xml:space="preserve">
<style type="text/css">
	.st0{fill:#FFFFFF;}
	.st1{fill-rule:evenodd;clip-rule:evenodd;fill:#FFFFFF;}
	.st2{fill:none;stroke:#FFFFFF;stroke-width:0.9034;stroke-miterlimit:10;}
	.st3{fill-rule:evenodd;clip-rule:evenodd;fill:#E40520;stroke:#FFFFFF;stroke-width:1.172;stroke-miterlimit:10;}
</style>
<g>
	<path class="st0" d="M346.6,35.6c-20.7,0-50.4,1.9-70.7,6.5c18.9-2.2,40.7-3.1,57.2-3.1c36.1,0,65.3,9.8,65.3,22s-29.2,22-65.3,22
		c-8.5,0-18.4-0.8-28.6-2.3c14.6,3.5,29.9,5.7,42.1,5.7c34.3,0,62.2-11.4,62.2-25.4C408.7,46.9,380.9,35.6,346.6,35.6z"/>
	<g>
		<polygon class="st0" points="248.2,46.2 256,46.2 248.2,71.7 257,71.7 255.9,75.8 238.3,75.8 		"/>
		<polygon class="st0" points="268.1,46.2 258.5,75.8 275,75.8 276.3,72.1 266.2,72.1 270.3,61 278.8,61 279.7,57.3 271.4,57.3 
			273.7,50 283.1,50 284.4,46.2 		"/>
		<polygon class="st0" points="301.3,75.8 310.7,46.2 317.1,46.2 319.7,65.4 325.9,46.2 330.8,46.2 321.2,75.8 317.3,75.8 
			313.9,52.8 307.7,75.8 		"/>
		<path class="st0" d="M351.6,47.6c-1.1-1.5-4.1-1.5-4.1-1.5h-7.3c0,0-6.2,0.7-8.3,6.9l-4.7,14.5c0,0-1.5,4.7,0,6.8s4.7,1.4,4.7,1.4
			l8.6,0.1c0,0,2.4-0.4,3.8-1.7c1.3-1.3,3-6.8,3-6.8l4.3-13C351.6,54.4,352.8,49.1,351.6,47.6z M348.3,53.4c0,0-4.3,12.6-5.4,16
			c-1.1,3.4-2.6,3.2-2.6,3.2h-5.3c-2.3-1.1-0.8-3.9-0.8-3.9l5.2-15c0.7-3.8,2.4-4.3,2.4-4.3h4.8C349.6,50,348.3,53.4,348.3,53.4z"/>
		<polygon class="st0" points="355.8,46.2 358.6,60.1 347.1,75.8 352.9,75.8 360.1,65 361.8,75.8 368.9,75.8 365.4,59.3 375.7,46.2 
			370.4,46.2 364.2,54.7 362.3,46.2 		"/>
		<polygon class="st0" points="278.1,75.8 287.5,46.2 293.8,46.2 296.5,65.4 302.7,46.2 307.6,46.2 298,75.8 294,75.8 290.6,52.8 
			284.5,75.8 		"/>
	</g>
</g>
<g>
	<path class="st0" d="M661.3,86.1v-0.1V86.1v-0.1h178c2.9,0,5.6-1.1,7.7-3.1c2.1-2,3.2-4.6,3.2-7.4v-29c0-2.8-1.1-5.4-3.2-7.4
		c-2.1-2-4.8-3.1-7.7-3.1v-0.1v0.1h-178v-0.1v0.1c-3,0-5.7,1.2-7.7,3.1c-2,1.9-3.2,4.5-3.2,7.4h-0.1c0-5.9,4.9-10.6,11-10.6h178
		c2.9,0,5.7,1.1,7.8,3.1c2.1,2,3.2,4.7,3.2,7.5v29c0,2.8-1.1,5.5-3.2,7.5c-2.1,2-4.8,3.1-7.8,3.1v-0.1v0.1H661.3 M847,39L847,39
		L847,39 M661.3,86.1c-2.9,0-5.7-1.1-7.8-3.1l0.1-0.1l-0.1,0.1l0.1-0.1c2.1,2,4.8,3.1,7.7,3.1V86.1 M653.5,82.9
		c-2.1-2-3.2-4.7-3.2-7.5h0.1C650.4,78.2,651.5,80.9,653.5,82.9L653.5,82.9 M650.2,75.4v-29h0.1v29H650.2"/>
	<path class="st0" d="M661.3,85.2c-2.7,0-5.3-1-7.2-2.9c-1.9-1.8-3-4.3-3-6.9v-29c0-2.6,1.1-5.1,3-6.9c1.9-1.9,4.5-2.9,7.2-2.9h178
		c2.7,0,5.3,1,7.2,2.9c1.9,1.8,3,4.3,3,6.9v29c0,5.4-4.5,9.8-10.1,9.8H661.3 M661.3,82.3h178c4,0,7.2-3.1,7.2-6.9v-29
		c0-3.8-3.2-7-7.2-7h-178c-4,0-7.2,3.1-7.2,7h0.1h-0.1v29h0.1h-0.1C654.1,79.2,657.3,82.3,661.3,82.3v-0.1V82.3"/>
	<path class="st0" d="M661.1,59c0-7.5,6.3-13,14-13c6.2,0,11.6,4.1,13,8.9h-7.5c-1-1.8-2.9-3.3-5.7-3.3c-3.3,0-7.1,2.4-7.1,7.3
		c0,5.3,3.9,7.6,7.2,7.6c3.3,0,5.5-1.6,6.2-4.1h-7.8v-5.1h15.5c0,0.4,0,0.8,0,1.3c0,8.4-6.7,13.5-13.9,13.5
		C667.1,72.2,661.1,66.2,661.1,59"/>
	<path class="st0" d="M691.2,62.2c0-4.6,3.4-10,10.5-10c7.1,0,10.5,5.4,10.5,10c0,4.6-3.4,10-10.5,10
		C694.6,72.2,691.2,66.8,691.2,62.2 M697,62.2c0,2.8,2.1,4.8,4.7,4.8c2.5,0,4.7-2,4.7-4.8c0-2.8-2.2-4.8-4.7-4.8
		C699.2,57.4,697,59.4,697,62.2"/>
	<path class="st0" d="M714.6,62.2c0-4.6,3.4-10,10.5-10c7.1,0,10.5,5.4,10.5,10c0,4.6-3.4,10-10.5,10
		C718.1,72.2,714.6,66.8,714.6,62.2 M720.5,62.2c0,2.8,2.1,4.8,4.7,4.8c2.5,0,4.7-2,4.7-4.8c0-2.8-2.2-4.8-4.7-4.8
		C722.6,57.4,720.5,59.4,720.5,62.2"/>
	<path class="st0" d="M738.1,62.2c0-6.4,4.7-10,9.7-10c3.4,0,5.1,1.6,5.7,2.2v-7.9h5.8v25.2h-5.6v-2h-0.1c-0.5,0.8-1.9,2.7-5.8,2.7
		C742,72.3,738.1,67.8,738.1,62.2 M744,62.1c0,2.9,2.1,4.9,4.9,4.9c3.7,0,5-2.9,5-4.9c0-2.3-1.7-4.7-4.9-4.7
		C745.5,57.4,744,59.9,744,62.1"/>
	<path class="st0" d="M787.1,71.7v-10c0-1.5,0-4.2-3-4.2c-3.2,0-3.2,2.9-3.2,3.9v10.3H775V61.4c0-1,0-4-2.9-4
		c-3.3,0-3.3,3.1-3.3,4.2v10h-5.8V52.8h5.5v2h0.1c0.5-0.8,1.7-2.7,5.4-2.7c1.7,0,4.1,0.6,5.6,3.4c1.2-1.8,3.2-3.4,6.2-3.4
		c1.4,0,3.6,0.3,5.1,1.9c1.8,1.9,2.1,3.1,2.1,7.3v10.3H787.1"/>
	<path class="st0" d="M795.5,62.2c0-6.2,4.6-10.1,9.8-10.1c3.2,0,5,1.5,5.7,2.7h0.1v-2h5.9v18.9h-5.9v-2H811c-1,1.8-3.4,2.7-5.7,2.7
		C799.1,72.3,795.5,67.6,795.5,62.2 M801.3,62.3c0,1.8,1.3,4.8,4.9,4.8c3.7,0,4.9-3,4.9-4.8c0-2.3-1.6-4.8-4.9-4.8
		C802.8,57.4,801.3,60.1,801.3,62.3"/>
	<path class="st0" d="M832.7,71.7V61.3c0-1.3,0-3.9-3.1-3.9c-3.3,0-3.3,2.8-3.3,4v10.3h-5.8V52.8h5.5v2h0.1c0.6-0.9,1.8-2.7,5.3-2.7
		c1.9,0,3.9,0.7,5,1.6c1.1,0.9,2.3,2.4,2.3,6.1v11.8H832.7"/>
	<path class="st0" d="M835.9,49.8c0-1.5,1.3-2.8,2.9-2.8c1.6,0,2.9,1.3,2.9,2.8c0,1.7-1.1,2.8-2.9,2.8
		C837.2,52.6,835.9,51.4,835.9,49.8 M836.3,49.8c0,1.3,1.1,2.4,2.5,2.4c1.4,0,2.5-1.1,2.5-2.4c0-1.3-1.1-2.4-2.5-2.4
		C837.4,47.4,836.3,48.5,836.3,49.8 M839.7,51.4c-0.1-0.1-0.1-0.2-0.1-0.6c0-0.5-0.1-0.8-0.8-0.8h-0.8v1.3h-0.4v-3.2h1.4
		c0.2,0,1.2,0,1.2,0.9c0,0.3-0.2,0.7-0.6,0.8v0c0.4,0.1,0.5,0.3,0.5,0.7c0,0.6,0,0.7,0.1,0.8H839.7 M837.9,49.7h0.8
		c0.2,0,0.9,0,0.9-0.6c0-0.5-0.6-0.5-0.8-0.5h-0.9V49.7"/>
</g>
<g>
	<path class="st1" d="M531.3,30.1c-28.4-0.1-54.4,4.7-68.8,13.5c-8.4,5.1-13.1,10.7-13.6,16.9c-0.5,6,4.7,12.1,13.5,17
		c14.7,8.1,40.4,13.9,68.6,13.9c45.4,0.1,82.7-13.2,82.7-30.1C613.7,44.4,576.5,30.2,531.3,30.1z M590,81.3
		c-14.8,5.2-36.2,7.5-59.1,7.5c-44.7-0.1-82.4-12-81-28.4c0.5-5.7,6.1-11.6,12.7-15.6c14.5-8.7,33.3-12.6,68.7-12.2
		c25,0.2,43.9,3.2,58.7,8.9c16.3,6.2,22,12.5,22.6,19.8C613.2,68.3,603.9,76.4,590,81.3z"/>
	<path class="st1" d="M507.3,54.9c1,1.4-0.2,2.8-0.5,4.1c-1.1,2.4-2.3,4.7-3.9,6.9c-1,0.7-2.5,2.4-4.1,1.6c-1.5-1.2-0.5-3.1-0.1-4.6
		c1.4-3.3,3.6-7.5,7.2-8.5C506.4,54.7,507.1,54.5,507.3,54.9L507.3,54.9L507.3,54.9L507.3,54.9L507.3,54.9z M570.9,55.6
		c0.5,1.8-0.2,3.6-1.4,4.9c-1.4,1.2-3.3,1.6-5.2,1.9l0,0l-0.8-0.1l0,0c0.7-2.7,1.9-6.1,4.7-7.7C569.2,54.3,570.5,54.7,570.9,55.6
		L570.9,55.6L570.9,55.6L570.9,55.6L570.9,55.6z M508.4,54.7c-0.3-0.4-0.8-0.9-1.2-1.2c-1.8-0.6-3.7,0.2-5.5,0.7
		c-4.8,2.6-8.1,7.8-7.7,13.2c0.3,1.3,1.1,2.9,2.6,3.3c3.1,0.7,5-1.9,7.3-3.9l0,0h0.2l0,0l0,0c-0.1,0.1-0.1,0.1-0.2,0.1
		c-0.2,1.2-0.5,2.9,0.7,3.7c2.4,0.9,4.4-1.4,6.1-3c0.6-0.7,1.7-1.5,1.3-2.6c-1.5,0.6-2.2,2.7-3.8,2.9c-0.5,0-0.3-0.7-0.3-1
		c1.5-4.4,3.1-9,4.5-13.5c-0.6-0.5-1.6-0.2-2.4-0.3C508.9,53.1,508.8,54.1,508.4,54.7L508.4,54.7L508.4,54.7L508.4,54.7L508.4,54.7z
		 M555.3,54.6l-0.2,0.9l-3.7,11.2l0,0c-0.1,0.6-0.6,1.8,0.2,2.1c1.3-0.6,2.3-2,3.6-2.7c0.5-0.2,0.3,0.2,0.5,0.3l0,0l-0.1,0.5l0,0
		c-1.6,2.4-4.4,4.7-7.6,4.5c-0.7-0.2-0.9-0.9-1.1-1.4l0,0l0.2-2.2l5-13.5l0,0c0.7-0.8,1.9-0.2,3-0.3l0,0L555.3,54.6L555.3,54.6
		L555.3,54.6L555.3,54.6z M530.9,54.4c0.4,1,0.6,2.3,0,3.2c-0.6,0.5-1,0.9-1.7,0.9c-0.8,0.1-1.4-0.3-1.6-0.9
		c-0.2-0.5,0.1-1.1-0.4-1.4c-1.8,1-2.4,2.9-3.5,4.4c-1.6,3-3.2,6-4.1,9.1c-0.8,1.2-2.2,0.5-3.2,0.6c-0.4-0.2-0.5-0.7-0.3-1.1l0,0
		l3.7-11.3l0,0c0-0.7,0.6-1.4,0-2c-0.9,0-1.1,0.9-1.8,1.4c-0.6,0.6-0.8,1.6-1.7,1.6c-0.5-0.2-0.2-0.6-0.1-0.9
		c1.2-2.2,3.4-4.1,5.8-4.8c0.4,0.1,1,0.1,1.3,0.4c0.9,2.1-0.3,4.4-0.7,6.4c0.4-0.2,0.6-1,0.9-1.5c1.5-2,2.8-4.9,5.6-5.3
		C529.7,53.6,530.7,53.7,530.9,54.4L530.9,54.4L530.9,54.4L530.9,54.4L530.9,54.4z M548.2,55.3c-0.3-1.5-1.9-1.9-3.1-1.4
		c-2.6,1.4-4,4-5.5,6.4c0.2-0.5,0-1.3,0.5-1.9c0.1-1.4,1.1-3.5-0.2-4.7c-1.4-0.5-2.3,0.2-3.3,0.8c-1.5,1.2-3.2,2.6-3.7,4.4
		c0.1,0.3,0.3,0.3,0.6,0.2c1.1-0.9,1.8-2.6,3.3-3.1c0.2,0.1,0.2,0.3,0.2,0.6c-1,4.5-2.8,8.6-4.1,13.1l0,0l0.1,0.6l0,0
		c0.8,0.5,1.9,0.3,2.7,0.4c1.4-0.9,1.2-2.7,2-4c1.8-3.5,3-7.3,6-10.2c0.2-0.1,0.6-0.3,0.7,0.1c0.1,0.6-0.1,1.4,0.7,1.8
		c0.6,0.3,1.2,0.2,1.9-0.1C548.3,58.1,548.1,56.5,548.2,55.3L548.2,55.3L548.2,55.3L548.2,55.3L548.2,55.3z M592,55
		c0.3,1.2,0.4,2.8-0.6,3.7c-0.6,0.4-1.7,0.5-2.4,0c-0.7-0.5,0.1-2.2-1.1-1.7c-3,3-4.4,7-6.2,10.6l0,0l-1.1,3.2l0,0
		c-0.8,0.6-2.1,0.2-3.1,0.2l0,0l-0.5-0.4l0,0c1.4-4.5,2.7-9,4.1-13.5c-0.1-0.2-0.2-0.4-0.3-0.5c-0.9,0.1-1.2,0.9-1.9,1.4l0,0
		l-1.1,1.6l0,0c-0.3,0.1-0.6,0.2-0.8-0.2c1-2.5,3.3-5.1,6.2-5.6c0.7,0.1,1.2,0.5,1.5,1.2c0,1.8-0.5,3.6-1,5.3c0.1,0.1,0.1,0,0.2-0.1
		c1.5-2.6,3.1-5.6,6.3-6.5C591,53.9,591.5,54.4,592,55L592,55L592,55L592,55L592,55z M574.8,55.8c-1.6-3.3-6.5-2.8-9.6-1.6
		c-4.2,2.1-6.8,6.9-6.9,11.6c0.2,1,0.3,1.8,0.7,2.7c0.8,1.4,2,2.7,3.8,2.8c3.4,0.7,6.8-1,9-3.3c0.3-0.6,1-1.1,0.8-1.8l0,0l-0.5-0.1
		l0,0c-1.2,1-2.5,1.9-3.9,2.5c-1.6,0.5-3.6,0.7-4.9-0.7c-1-1.1-0.9-2.7-0.5-4l0,0l5.6-1l0.2-0.2l0,0c1.7-0.3,3.3-1.2,4.8-2.3
		C574.8,59.4,575.2,57.4,574.8,55.8L574.8,55.8L574.8,55.8L574.8,55.8L574.8,55.8z M497.7,47.7c-1.2-2-3.9-2-5.9-2.1
		c-6.9,0.7-13.8,3.7-17.7,9.5c-2.2,3-2.8,7.7-1.1,11c1.8,3.1,5.1,4.7,8.5,4.5c3-0.3,6-1.1,8.5-2.8c0.5-0.5,1-0.7,1.1-1.4
		c0-0.3-0.3-0.5-0.6-0.6c-2.1,1.5-4.6,2.6-7.2,3c-2,0.3-4.3-0.6-5.6-2.3c-2.5-4.3-0.1-9.4,2.2-13.1c3.3-4,7.6-7,13-6.1
		c1,0.6-0.6,1.6,0,2.6c0.5,0.8,1.4,1.2,2.2,1.2c1-0.2,1.8-0.5,2.3-1.2C498,49.3,498,48.5,497.7,47.7L497.7,47.7L497.7,47.7
		L497.7,47.7L497.7,47.7z M557,47.4c0.5,0.5,0.5,1.5,0.3,2.2c-0.2,0.5-0.5,1-0.9,1.4l0,0l0,0l0,0c-0.5,0.4-1.1,0.7-1.8,0.7
		c-0.7-0.1-1.2-0.3-1.5-1c-0.5-1.2,0.3-2.4,1.1-3.2C555.1,46.9,556.2,46.6,557,47.4L557,47.4L557,47.4L557,47.4z"/>
	<path class="st0" d="M611.5,81.7h-1v1.9h1c0.6,0,1-0.1,1.2-0.2c0.2-0.1,0.3-0.4,0.3-0.7c0-0.3-0.1-0.6-0.4-0.8
		C612.4,81.7,612,81.7,611.5,81.7L611.5,81.7z M611.6,81.1c0.7,0,1.3,0.1,1.7,0.4c0.4,0.2,0.5,0.6,0.5,1.1c0,0.4-0.1,0.7-0.3,0.9
		c-0.2,0.3-0.5,0.4-0.9,0.5l1.2,2.4h-0.9l-1.1-2.3h-1.2v2.3h-0.8v-5.3H611.6L611.6,81.1z M615.6,83.9c0-0.6-0.1-1.1-0.3-1.6
		c-0.2-0.5-0.5-0.9-0.9-1.3c-0.4-0.4-0.8-0.7-1.3-0.9c-0.5-0.2-1-0.3-1.6-0.3c-0.5,0-1.1,0.1-1.5,0.3c-0.5,0.2-0.9,0.5-1.3,0.9
		c-0.4,0.4-0.7,0.9-0.9,1.4c-0.2,0.5-0.3,1-0.3,1.6c0,0.5,0.1,1.1,0.3,1.5c0.2,0.5,0.5,0.9,0.9,1.3c0.4,0.4,0.8,0.7,1.3,0.9
		c0.5,0.2,1,0.3,1.6,0.3c0.5,0,1.1-0.1,1.6-0.3c0.5-0.2,1-0.5,1.4-0.9c0.4-0.4,0.7-0.8,0.9-1.3C615.5,85,615.6,84.4,615.6,83.9
		L615.6,83.9z M611.5,79.2c0.6,0,1.2,0.1,1.8,0.3c0.6,0.2,1.1,0.6,1.5,1c0.4,0.4,0.8,0.9,1,1.5c0.2,0.6,0.3,1.1,0.3,1.8
		c0,0.6-0.1,1.2-0.3,1.8c-0.2,0.5-0.6,1-1,1.5c-0.4,0.4-1,0.8-1.5,1c-0.6,0.2-1.2,0.4-1.8,0.4c-0.6,0-1.2-0.1-1.8-0.3
		c-0.6-0.2-1-0.6-1.5-1c-0.4-0.4-0.8-0.9-1-1.5c-0.2-0.6-0.3-1.1-0.3-1.8c0-0.6,0.1-1.2,0.4-1.8c0.2-0.6,0.6-1.1,1-1.5
		c0.4-0.4,0.9-0.8,1.5-1C610.3,79.4,610.9,79.2,611.5,79.2L611.5,79.2z"/>
	<path class="st2" d="M590.1,36.4c-15.1-5.7-36.2-9.3-58.8-9.7c-46.9-0.9-85.9,14.8-86,33.9c-0.1,19.1,38,34.3,85.3,34.5
		c47.2,0.2,86.3-14.7,86.3-33.6C616.9,51.9,607.4,42.8,590.1,36.4z M530.9,91.4c-28.2,0-53.9-5.8-68.6-13.9
		c-8.8-4.8-13.9-11-13.5-17c0.5-6.2,5.2-11.8,13.6-16.9c14.4-8.9,40.4-13.6,68.8-13.5c45.2,0.2,82.4,14.3,82.3,31.2
		C613.6,78.2,576.3,91.4,530.9,91.4z"/>
</g>
<g>
	<path class="st3" d="M121.9,95.7L36,80.6l6.4-54.4c0,0,158.6,0,158.6,0l6.4,54.4L121.9,95.7L121.9,95.7z"/>
	<path class="st1" d="M64.6,38.6h5.9v8.6h0.1c0.5-1.5,2.7-2.6,4.5-2.6c3.8,0,4.3,2.7,4.3,5.6v15c0,2.9-1.1,5.6-4.9,5.6
		c-1.8,0-9.9-0.1-9.9-0.1V38.6L64.6,38.6z M70.5,66c0,0.6,0.7,1.4,1.5,1.4c0.8,0,1.3-0.7,1.5-1.4V50.6c-0.2-0.6-0.7-1.4-1.5-1.4
		c-0.8,0-1.5,0.7-1.5,1.4V66L70.5,66z"/>
	<path class="st1" d="M92.3,47.1L92.3,47.1c1-1.6,2.9-2.5,5-2.5c3,0,3.8,1.7,3.8,4.5V56h-5.9v-5.3c-0.2-0.6-0.5-1.4-1.3-1.4
		c-0.8,0-1.5,0.7-1.5,1.4v20.1h-5.8V44.9h5.8V47.1L92.3,47.1z"/>
	<path class="st1" d="M122,44.9l-4.3,26c-0.7,4.5-1.6,6.1-7.5,6.1h-3.1v-4.9h1.9c1.3,0,1.7-0.2,1.7-1.2c0-0.2,0-0.5,0-0.8l-4.8-25.4
		h6.1l2.3,19.7h0.1l2-19.7H122L122,44.9z"/>
	<path class="st1" d="M127.9,50.4c0-3.9,3.2-6.2,7.1-6.2c3.8,0,7.2,1.7,7.2,6.7c0,0-0.1,18.3,0,20.1c0,0-6.8,0.3-10.2,0.1
		c-3-0.2-4.1-1.7-4.1-4.6v-5.5c0-6.5,8.6-4,8.6-9.6v-1c0-0.6-0.7-1.4-1.5-1.4c-0.8,0-1.3,0.7-1.3,1.4v2.4h-5.8V50.4L127.9,50.4z
		 M133.7,65.6c0,0.6,0.3,1.3,1.2,1.3c0.9,0,1.3-0.7,1.3-1.3v-7.3l-1.3,0.7c-1,0.7-1.2,0.9-1.2,2V65.6L133.7,65.6z"/>
	<path class="st1" d="M155.8,47.1L155.8,47.1c0.5-1.6,2.4-2.8,4-2.8c3.9,0,4.9,2.9,4.9,5.8v20.5h-5.9V50.6c-0.2-0.6-0.7-1.4-1.5-1.4
		c-0.8,0-1.5,0.7-1.7,1.4v20.1h-5.9V44.9h6.1V47.1L155.8,47.1z"/>
	<path class="st1" d="M178.8,44.6h2.8v4.2h-2.8v15.9c0.2,0.8,0.3,1.8,1.2,1.8h1.8v4.5H178c-4.3-0.2-5.1-1.5-5.1-5.4V48.8h-2.6v-4.2
		h2.6v-4.9h5.9V44.6L178.8,44.6z"/>
	<path class="st1" d="M121.8,91.1l80.9-14.3l-5.4-46.3c0,0-151,0-151,0l-5.4,46.3L121.8,91.1L121.8,91.1z M121.7,89.2L43,75.2
		l5.1-42.8c0,0,147.3,0,147.3,0l5.1,42.8L121.7,89.2L121.7,89.2z"/>
</g>
</svg>
