<!-- Generator: Adobe Illustrator 22.1.0, SVG Export Plug-In  -->
<svg version="1.1"
	 xmlns="http://www.w3.org/2000/svg" xmlnsXlink="http://www.w3.org/1999/xlink" xlinkHref="http://ns.adobe.com/AdobeSVGViewerExtensions/3.0/"
	 x="0px" y="0px" width="317.472px" height="192.691px" viewBox="0 0 317.472 192.691"
	 style="enable-background:new 0 0 317.472 192.691;" xml:space="preserve">
<style type="text/css">
	.st0{fill:#2460A8;}
	.st1{fill:#E1081A;}
	.st2{fill:#0C88CA;}
	.st3{fill:#1E1F1D;}
</style>
<defs>
</defs>
<g>
	<g>
		<g>
			<path class="st0" d="M11.328,158.221c-0.212,0-0.296,0.085-0.381,0.338l-2.282,5.79c-0.423,1.059-0.635,2.072-0.635,2.579
				c0,0.761,0.381,1.31,1.691,1.31h0.633c0.508,0,0.635,0.085,0.635,0.338c0,0.338-0.254,0.423-0.719,0.423
				c-1.353,0-3.169-0.128-4.48-0.128c-0.465,0-2.79,0.128-4.988,0.128C0.254,169,0,168.916,0,168.577
				c0-0.254,0.169-0.338,0.508-0.338c0.38,0,0.972-0.043,1.31-0.085c1.944-0.254,2.747-1.69,3.592-3.805l10.609-26.206
				c0.508-1.226,0.761-1.69,1.183-1.69c0.381,0,0.635,0.38,1.058,1.352c1.014,2.326,7.777,19.233,10.482,25.657
				c1.606,3.805,2.832,4.397,3.719,4.608c0.635,0.126,1.268,0.169,1.776,0.169c0.337,0,0.549,0.041,0.549,0.338
				c0,0.338-0.38,0.423-1.944,0.423c-1.522,0-4.608,0-7.989-0.085c-0.761-0.043-1.268-0.043-1.268-0.338
				c0-0.254,0.168-0.338,0.591-0.382c0.296-0.083,0.592-0.464,0.381-0.972l-3.382-8.706c-0.085-0.213-0.21-0.297-0.422-0.297H11.328
				z M19.951,156.108c0.212,0,0.254-0.126,0.212-0.254l-3.804-10.398c-0.042-0.169-0.085-0.38-0.212-0.38
				c-0.127,0-0.212,0.21-0.254,0.38l-3.889,10.356c-0.042,0.169,0,0.295,0.169,0.295H19.951z"/>
			<path class="st0" d="M39.219,149.302c0-6.426,0-7.608-0.085-8.962c-0.085-1.436-0.508-2.154-1.437-2.367
				c-0.465-0.126-1.014-0.169-1.522-0.169c-0.423,0-0.676-0.085-0.676-0.423c0-0.254,0.337-0.336,1.014-0.336
				c1.606,0,4.269,0.126,5.495,0.126c1.056,0,3.55-0.126,5.157-0.126c0.55,0,0.887,0.083,0.887,0.336
				c0,0.338-0.253,0.423-0.676,0.423s-0.761,0.043-1.268,0.128c-1.141,0.21-1.479,0.929-1.564,2.408
				c-0.085,1.354-0.085,2.536-0.085,8.962v7.439c0,4.1,0,7.439,0.169,9.257c0.127,1.141,0.423,1.902,1.691,2.072
				c0.591,0.085,1.522,0.169,2.155,0.169c0.465,0,0.677,0.126,0.677,0.338c0,0.295-0.338,0.423-0.804,0.423
				c-2.79,0-5.453-0.128-6.594-0.128c-0.972,0-3.635,0.128-5.326,0.128c-0.55,0-0.845-0.128-0.845-0.423
				c0-0.213,0.168-0.338,0.676-0.338c0.635,0,1.141-0.085,1.522-0.169c0.845-0.169,1.099-0.887,1.226-2.113
				c0.212-1.777,0.212-5.115,0.212-9.215V149.302z"/>
			<path class="st0" d="M54.095,149.302c0-6.426,0-7.608-0.085-8.962c-0.085-1.436-0.423-2.113-1.818-2.408
				c-0.337-0.085-1.056-0.128-1.649-0.128c-0.464,0-0.718-0.085-0.718-0.38c0-0.297,0.296-0.38,0.93-0.38
				c2.241,0,4.904,0.126,5.791,0.126c1.437,0,4.65-0.126,5.96-0.126c2.663,0,5.495,0.252,7.777,1.816
				c1.183,0.805,2.874,2.959,2.874,5.792c0,3.128-1.31,6.001-5.58,9.467c3.762,4.734,6.678,8.497,9.172,11.118
				c2.367,2.451,4.1,2.746,4.735,2.874c0.464,0.083,0.845,0.126,1.183,0.126c0.337,0,0.507,0.126,0.507,0.338
				c0,0.338-0.295,0.423-0.803,0.423h-4.015c-2.367,0-3.424-0.213-4.523-0.805c-1.817-0.972-3.423-2.957-5.79-6.213
				c-1.691-2.323-3.636-5.198-4.185-5.833c-0.212-0.252-0.465-0.295-0.761-0.295l-3.677-0.085c-0.212,0-0.338,0.085-0.338,0.338
				v0.592c0,3.931,0,7.27,0.212,9.044c0.127,1.226,0.381,2.156,1.649,2.326c0.633,0.085,1.564,0.169,2.071,0.169
				c0.338,0,0.508,0.126,0.508,0.338c0,0.295-0.296,0.423-0.845,0.423c-2.452,0-5.58-0.128-6.214-0.128
				c-0.803,0-3.466,0.128-5.157,0.128c-0.55,0-0.845-0.128-0.845-0.423c0-0.213,0.168-0.338,0.676-0.338
				c0.635,0,1.141-0.085,1.522-0.169c0.845-0.169,1.056-1.1,1.226-2.326c0.212-1.775,0.212-5.113,0.212-9.003V149.302z
				 M59.082,152.641c0,0.466,0.085,0.636,0.381,0.761c0.887,0.295,2.155,0.423,3.213,0.423c1.69,0,2.24-0.169,3-0.718
				c1.268-0.931,2.494-2.874,2.494-6.341c0-6.003-3.973-7.736-6.467-7.736c-1.056,0-1.817,0.043-2.24,0.169
				c-0.296,0.085-0.381,0.254-0.381,0.592V152.641z"/>
			<path class="st0" d="M99.31,164.985c-4.142-3.636-5.241-8.369-5.241-12.469c0-2.874,0.888-7.862,4.946-11.582
				c3.043-2.79,7.058-4.48,13.357-4.48c2.621,0,4.185,0.169,6.128,0.423c1.606,0.21,2.959,0.59,4.227,0.718
				c0.465,0.041,0.635,0.254,0.635,0.508c0,0.336-0.127,0.844-0.212,2.323c-0.085,1.395-0.042,3.72-0.127,4.566
				c-0.042,0.633-0.127,0.972-0.508,0.972c-0.337,0-0.422-0.338-0.422-0.931c-0.042-1.31-0.592-2.79-1.649-3.89
				c-1.395-1.477-4.692-2.621-8.581-2.621c-3.677,0-6.086,0.931-7.946,2.621c-3.086,2.833-3.889,6.849-3.889,10.949
				c0,10.059,7.65,15.047,13.314,15.047c3.762,0,6.045-0.421,7.735-2.367c0.719-0.803,1.268-2.028,1.437-2.79
				c0.127-0.675,0.212-0.844,0.55-0.844c0.296,0,0.381,0.295,0.381,0.633c0,0.508-0.508,4.185-0.931,5.621
				c-0.212,0.72-0.38,0.931-1.099,1.226c-1.691,0.677-4.903,0.972-7.608,0.972C108.018,169.59,103.157,168.323,99.31,164.985z"/>
			<path class="st1" d="M126.019,153.023c0-7.228,4.777-16.57,17.457-16.57c10.526,0,17.077,6.128,17.077,15.808
				c0,9.68-6.762,17.329-17.498,17.329C130.924,169.59,126.019,160.503,126.019,153.023z M154.635,153.825
				c0-9.469-5.452-15.344-12.385-15.344c-4.859,0-10.398,2.705-10.398,13.231c0,8.79,4.861,15.765,12.977,15.765
				C147.789,167.477,154.635,166.041,154.635,153.825z"/>
			<path class="st1" d="M163.081,153.023c0-7.228,4.777-16.57,17.457-16.57c10.526,0,17.077,6.128,17.077,15.808
				c0,9.68-6.764,17.329-17.5,17.329C167.984,169.59,163.081,160.503,163.081,153.023z M191.697,153.825
				c0-9.469-5.454-15.344-12.385-15.344c-4.861,0-10.398,2.705-10.398,13.231c0,8.79,4.859,15.765,12.975,15.765
				C184.848,167.477,191.697,166.041,191.697,153.825z"/>
			<path class="st0" d="M209.102,156.741c0,5.41,0,8.328,0.887,9.087c0.72,0.636,1.818,0.931,5.115,0.931
				c2.241,0,3.89-0.041,4.946-1.184c0.508-0.549,1.013-1.731,1.098-2.536c0.043-0.38,0.128-0.633,0.466-0.633
				c0.295,0,0.336,0.213,0.336,0.718c0,0.466-0.295,3.636-0.633,4.862c-0.254,0.931-0.464,1.141-2.662,1.141
				c-3.044,0-5.241-0.085-7.144-0.126c-1.903-0.085-3.423-0.128-5.157-0.128c-0.466,0-1.395,0-2.41,0.043
				c-0.972,0-2.072,0.085-2.916,0.085c-0.551,0-0.846-0.128-0.846-0.423c0-0.213,0.169-0.338,0.677-0.338
				c0.633,0,1.141-0.085,1.521-0.169c0.846-0.169,1.056-1.1,1.226-2.326c0.213-1.775,0.213-5.113,0.213-9.003v-7.439
				c0-6.426,0-7.608-0.085-8.962c-0.085-1.436-0.423-2.113-1.818-2.408c-0.338-0.085-0.846-0.128-1.395-0.128
				c-0.464,0-0.718-0.085-0.718-0.38c0-0.297,0.295-0.38,0.929-0.38c1.987,0,4.651,0.126,5.792,0.126c1.013,0,4.1-0.126,5.749-0.126
				c0.59,0,0.887,0.083,0.887,0.38c0,0.295-0.254,0.38-0.761,0.38c-0.464,0-1.141,0.043-1.649,0.128
				c-1.141,0.21-1.48,0.929-1.564,2.408c-0.085,1.354-0.085,2.536-0.085,8.962V156.741z"/>
			<path class="st0" d="M239.951,149.302c0-6.426,0-7.608-0.085-8.962c-0.085-1.436-0.423-2.113-1.818-2.408
				c-0.338-0.085-1.056-0.128-1.649-0.128c-0.464,0-0.718-0.085-0.718-0.38c0-0.297,0.295-0.38,0.929-0.38
				c2.241,0,4.905,0.126,6.087,0.126c1.733,0,4.185-0.126,6.128-0.126c5.285,0,7.187,1.775,7.864,2.408
				c0.929,0.887,2.113,2.79,2.113,5.031c0,6.003-4.397,10.229-10.398,10.229c-0.213,0-0.677,0-0.889-0.043
				c-0.21-0.041-0.506-0.083-0.506-0.38c0-0.338,0.295-0.464,1.182-0.464c2.367,0,5.664-2.664,5.664-6.974
				c0-1.395-0.126-4.228-2.495-6.341c-1.521-1.395-3.254-1.649-4.226-1.649c-0.633,0-1.267,0.043-1.649,0.169
				c-0.21,0.085-0.338,0.338-0.338,0.803v16.908c0,3.89,0,7.228,0.213,9.046c0.126,1.182,0.38,2.113,1.649,2.282
				c0.59,0.085,1.521,0.169,2.154,0.169c0.466,0,0.677,0.126,0.677,0.338c0,0.295-0.338,0.423-0.803,0.423
				c-2.79,0-5.454-0.128-6.551-0.128c-0.972,0-3.636,0.128-5.326,0.128c-0.551,0-0.846-0.128-0.846-0.423
				c0-0.213,0.169-0.338,0.677-0.338c0.633,0,1.141-0.085,1.521-0.169c0.846-0.169,1.056-1.1,1.226-2.326
				c0.213-1.775,0.213-5.113,0.213-9.003V149.302z"/>
			<path class="st0" d="M251.053,166.295c0-1.056,0.759-2.579,2.577-2.579c1.438,0,2.579,0.972,2.579,2.451
				c0,1.48-1.015,2.705-2.621,2.705C251.812,168.872,251.053,167.477,251.053,166.295z"/>
			<path class="st0" d="M268.732,149.302c0-6.426,0-7.608-0.085-8.962c-0.085-1.436-0.423-2.113-1.818-2.408
				c-0.336-0.085-1.056-0.128-1.647-0.128c-0.466,0-0.72-0.085-0.72-0.38c0-0.297,0.297-0.38,0.931-0.38
				c2.241,0,4.903,0.126,6.087,0.126c1.733,0,4.185-0.126,6.128-0.126c5.282,0,7.185,1.775,7.862,2.408
				c0.931,0.887,2.113,2.79,2.113,5.031c0,6.003-4.395,10.229-10.398,10.229c-0.21,0-0.677,0-0.887-0.043
				c-0.213-0.041-0.508-0.083-0.508-0.38c0-0.338,0.295-0.464,1.184-0.464c2.367,0,5.664-2.664,5.664-6.974
				c0-1.395-0.128-4.228-2.495-6.341c-1.521-1.395-3.254-1.649-4.226-1.649c-0.636,0-1.269,0.043-1.649,0.169
				c-0.213,0.085-0.338,0.338-0.338,0.803v16.908c0,3.89,0,7.228,0.21,9.046c0.128,1.182,0.382,2.113,1.649,2.282
				c0.592,0.085,1.523,0.169,2.156,0.169c0.464,0,0.677,0.126,0.677,0.338c0,0.295-0.338,0.423-0.805,0.423
				c-2.79,0-5.452-0.128-6.551-0.128c-0.972,0-3.634,0.128-5.326,0.128c-0.549,0-0.844-0.128-0.844-0.423
				c0-0.213,0.167-0.338,0.675-0.338c0.636,0,1.141-0.085,1.523-0.169c0.844-0.169,1.056-1.1,1.226-2.326
				c0.21-1.775,0.21-5.113,0.21-9.003V149.302z"/>
			<path class="st0" d="M279.888,166.295c0-1.056,0.759-2.579,2.577-2.579c1.438,0,2.579,0.972,2.579,2.451
				c0,1.48-1.015,2.705-2.621,2.705C280.647,168.872,279.888,167.477,279.888,166.295z"/>
			<path class="st0" d="M294.212,168.493c-0.677-0.297-0.805-0.508-0.805-1.438c0-2.323,0.169-4.859,0.213-5.536
				c0.041-0.633,0.169-1.1,0.508-1.1c0.38,0,0.421,0.382,0.421,0.72c0,0.549,0.169,1.436,0.382,2.154
				c0.929,3.128,3.423,4.269,6.044,4.269c3.805,0,5.664-2.577,5.664-4.818c0-2.072-0.633-4.015-4.143-6.762l-1.944-1.523
				c-4.649-3.636-6.254-6.593-6.254-10.018c0-4.649,3.888-7.988,9.762-7.988c2.749,0,4.523,0.423,5.623,0.718
				c0.38,0.085,0.592,0.21,0.592,0.508c0,0.549-0.169,1.775-0.169,5.072c0,0.931-0.128,1.267-0.466,1.267
				c-0.295,0-0.421-0.252-0.421-0.759c0-0.382-0.213-1.692-1.1-2.79c-0.633-0.803-1.859-2.072-4.608-2.072
				c-3.128,0-5.031,1.818-5.031,4.354c0,1.944,0.974,3.423,4.482,6.087l1.182,0.887c5.115,3.846,6.933,6.762,6.933,10.777
				c0,2.451-0.931,5.369-3.974,7.356c-2.113,1.352-4.48,1.731-6.721,1.731C297.931,169.59,296.028,169.295,294.212,168.493z"/>
			<path class="st0" d="M312.315,166.295c0-1.056,0.759-2.579,2.577-2.579c1.438,0,2.579,0.972,2.579,2.451
				c0,1.48-1.015,2.705-2.621,2.705C313.075,168.872,312.315,167.477,312.315,166.295z"/>
		</g>
		<g>
			<path class="st2" d="M204.252,80.169c0.168-4.892-0.539-9.679-1.65-14.421c-0.607-2.591-1.465-5.108-2.303-7.63
				c-0.339-1.302-1.131-3.144-2.034-5.023c0.043,0.024,0.063,0.07,0.118,0.082c0.11-0.301-0.063-0.57-0.169-0.804
				c-0.883-1.945-1.778-3.885-2.717-5.806c-2.081-4.255-4.584-8.248-7.325-12.089c-1.803-2.527-3.778-4.931-5.853-7.252
				c-3.387-3.79-7.002-7.34-10.942-10.548c-3.568-2.905-7.335-5.527-11.398-7.707c-1.734-0.931-3.494-1.804-5.313-2.561
				c-2.123-0.883-4.28-1.672-6.517-2.193c-1.635-0.381-3.295-0.638-4.972-0.843c-4.537-0.556-8.836,0.075-12.902,2.177
				c-1.929,0.997-3.559,2.368-4.993,4.09c0.258,0.06,0.43,0.108,0.605,0.14c1.305,0.242,2.632,0.304,3.939,0.597
				c1.011,0.227,1.997,0.596,3.041,0.682c2.053,0.656,4.065,1.414,6.051,2.258c3.175,1.349,6.161,3.042,9.036,4.912
				c3.186,2.072,6.195,4.404,9.029,6.944c3.098,2.777,6.019,5.724,8.743,8.877c2.785,3.223,5.38,6.582,7.752,10.114
				c1.814,2.701,3.479,5.491,5.014,8.364c1.471,2.753,2.786,5.573,3.966,8.461c0.607,1.486,1.16,2.989,1.681,4.507
				c0.785,2.286,1.479,4.599,2.002,6.954c0.341,1.538,0.619,3.095,0.873,4.655c0.339,2.08,0.573,4.17,0.668,6.263
				c0.179,3.932-0.212,7.82-1.196,11.65c-0.703,2.738-1.788,5.304-3.358,7.63c-3.077,4.56-7.529,7.204-12.69,8.789
				c-0.79,0.243-1.59,0.452-2.506,0.711c0.775,0.203,1.337-0.161,1.932-0.26c1.356-0.226,2.711-0.509,4.034-0.875
				c7.149-1.975,11.565-4.562,11.732-4.656c3.287-1.847,5.823-4.045,8.532-6.668c2.748-2.66,5.085-5.64,6.902-9.014
				c1.454-2.699,2.438-5.572,3.126-8.551C203.866,81.465,204.23,80.82,204.252,80.169z M196.353,49.337
				c-0.031-0.058-0.063-0.12-0.094-0.178C196.29,49.218,196.322,49.277,196.353,49.337z"/>
			<path class="st0" d="M172.338,109.81c0.329-0.157,0.648-0.327,0.968-0.496c0.129-0.072,0.259-0.143,0.387-0.217
				c0.713-0.393,1.403-0.816,2.067-1.272c0.033-0.02,0.065-0.043,0.096-0.068c1.866-1.294,3.551-2.812,4.976-4.611
				c7.63-9.629,6.608-24.251-1.203-38.572c-0.047-0.095-0.087-0.194-0.134-0.289c-1.512-3-3.292-5.829-5.289-8.505
				c-2.05-2.748-4.307-5.337-6.732-7.777c-3.453-3.475-7.169-6.628-11.153-9.475c-0.165-0.118-0.333-0.23-0.498-0.348
				c-6.534-4.748-13.358-8.387-20.079-10.827c-0.127-0.05-0.254-0.103-0.381-0.154c-2.884-1.14-5.844-2.009-8.85-2.711
				c-2.68-0.626-5.418-0.763-8.175-0.675c-1.195,0.038-2.327,0.276-3.435,0.655c-0.948,0.324-1.84,0.826-2.431,1.647
				c-1.39,1.934-2.619,3.973-3.701,6.097c-1.369,2.688-2.519,5.462-3.487,8.325c-0.81,2.397-1.508,4.828-1.976,7.297l0,0
				c-0.073,0.387-0.156,0.773-0.217,1.162c-0.388,2.494-1.011,4.935-1.404,7.426c-0.289,1.829-0.136,3.639-0.166,5.46
				c0.414-1.108,0.45-2.288,0.714-3.426c0.737-3.171,2.121-5.976,4.216-8.445c2.676-3.155,5.97-5.41,9.887-6.751
				c1.542-0.528,3.132-0.812,4.739-1.086c3.046-0.519,6.053-0.22,9.027,0.313c2.585,0.463,5.111,1.24,7.551,2.253
				c2.592,1.076,5.083,2.352,7.454,3.848c2.616,1.65,5.071,3.518,7.38,5.581c2.811,2.511,5.321,5.293,7.522,8.345
				c1.785,2.475,3.338,5.088,4.559,7.902c1.079,2.487,1.979,5.012,2.441,7.692c0.075,0.435,0.044,1.009,0.615,1.234
				c0.513,0.26,0.994,0.563,1.458,0.892v0c0.381,0.27,0.752,0.556,1.108,0.87c1.625,1.437,2.654,3.247,3.113,5.314
				c0.492,2.219,0.231,4.415-0.817,6.486c-1.278,2.525-3.307,4.124-5.981,4.949c-2.33,0.719-4.602,0.455-6.812-0.47
				c-2.718-1.137-4.618-3.089-5.669-5.851c-0.625-1.642-0.741-3.323-0.474-5.059c0.336-2.186,1.353-4,2.957-5.466
				c1.532-1.4,3.313-2.345,5.438-2.504c0.306-0.023,0.399-0.129,0.275-0.505c-1.032-3.119-2.56-5.995-4.374-8.705
				c-3.551-5.303-7.94-9.808-13.254-13.366c-1.209-0.809-2.44-1.624-3.853-2.077c-1.864-1.024-3.866-1.623-5.94-2.067
				c-2.683-0.574-5.374-0.688-8.034-0.075c-4.737,1.091-8.476,3.811-11.529,7.508c-2.844,3.443-3.877,7.534-4.005,11.896
				c-0.089,3.038,0.39,6.014,1.163,8.949c0.459,1.74,1.052,3.436,1.758,5.083c1.231,2.87,2.723,5.598,4.492,8.187
				c1.456,2.13,3.059,4.134,4.823,5.997c2.886,3.047,6.041,5.786,9.743,7.835c2.329,1.289,4.749,2.359,7.27,3.222
				c1.928,0.66,3.891,1.147,5.88,1.582c1.75,0.383,3.512,0.74,5.284,0.835c3.127,0.168,6.26,0.346,9.4,0.058
				c1.819-0.167,3.591-0.445,5.369-0.893c1.747-0.44,3.449-0.95,5.069-1.714C171.773,110.112,172.052,109.954,172.338,109.81z"/>
			<g>
				<path class="st1" d="M159.997,0c-0.803,0-2.733,0.143-3.527,0.176c12.107,5.468,23.346,14.356,32.573,27.481
					c19.508,27.75,21.124,61.363,1.026,75.492c-0.306,0.215-0.624,0.406-0.936,0.61c16.09-9.83,26.831-27.555,26.831-47.791
					C215.964,25.057,190.907,0,159.997,0z"/>
			</g>
			<g>
				<path class="st3" d="M198.382,53.172c-0.304-0.065-0.397-0.347-0.487-0.565c-0.932-2.268-2.127-4.409-3.33-6.531
					c-1.604-2.83-3.4-5.552-5.361-8.157c-2.149-2.854-4.432-5.597-6.932-8.149c-3.732-3.81-7.704-7.333-12.074-10.42
					c-4.034-2.85-8.289-5.267-12.837-7.161c-2.373-0.988-4.838-1.715-7.361-2.271c-2.54-0.56-5.088-0.911-7.685-0.869
					c-3.041,0.049-5.992,0.56-8.784,1.827c-0.206,0.094-0.442,0.122-0.663,0.181c-1.043-0.086-2.029-0.455-3.041-0.682
					c-1.307-0.293-2.634-0.355-3.94-0.597c-0.174-0.032-0.346-0.08-0.605-0.14c1.434-1.722,3.063-3.093,4.993-4.09
					c4.066-2.102,8.365-2.733,12.902-2.177c1.677,0.205,3.337,0.462,4.972,0.843c2.237,0.521,4.394,1.31,6.517,2.193
					c1.819,0.757,3.578,1.63,5.313,2.561c4.063,2.18,7.83,4.801,11.398,7.707c3.94,3.208,7.555,6.758,10.942,10.548
					c2.074,2.321,4.05,4.725,5.853,7.252c2.741,3.841,5.244,7.834,7.325,12.089c0.939,1.921,1.834,3.861,2.717,5.806
					C198.32,52.602,198.492,52.872,198.382,53.172z"/>
			</g>
			<g>
				<g>
					<path class="st3" d="M102.236,58.452c0.737-3.171,2.121-5.976,4.216-8.445c2.676-3.155,5.97-5.41,9.887-6.751
						c1.542-0.528,3.132-0.812,4.739-1.086c3.046-0.519,6.053-0.22,9.027,0.313c2.585,0.463,5.111,1.24,7.551,2.253
						c2.592,1.076,5.083,2.352,7.454,3.848c2.616,1.65,5.071,3.518,7.38,5.581c2.811,2.511,5.321,5.293,7.522,8.345
						c1.785,2.475,3.338,5.088,4.559,7.902c1.079,2.487,2.139,5.796,2.6,8.476c0.075,0.435,1.394-0.165,1.174-0.939
						c-8.356-29.425-33.302-45.243-52.896-38.511c-4.758,1.635-8.831,4.541-12.143,8.393c-0.073,0.387-0.156,0.773-0.217,1.162
						c-0.388,2.494-1.011,4.935-1.404,7.426c-0.289,1.829-0.136,3.639-0.166,5.46C101.935,60.77,101.971,59.59,102.236,58.452z"/>
				</g>
			</g>
		</g>
	</g>
	<g>
		<g>
			<path class="st1" d="M12.385,179.817h2.288l5.462,12.555h-3.121l-1.082-2.66h-4.877l-1.046,2.66h-3.05L12.385,179.817z
				 M13.449,183.47l-1.525,3.901h3.068L13.449,183.47z"/>
			<path class="st1" d="M21.358,179.817h2.766v12.555h-2.766V179.817z"/>
			<path class="st1" d="M26.643,179.817h4.859c0.638,0,1.244,0.062,1.818,0.186c0.573,0.124,1.076,0.331,1.507,0.621
				c0.431,0.29,0.774,0.68,1.029,1.17c0.254,0.491,0.381,1.102,0.381,1.835c0,0.887-0.231,1.64-0.692,2.261
				c-0.461,0.621-1.135,1.014-2.021,1.179l3.192,5.302h-3.316l-2.625-5.018h-1.365v5.018h-2.766V179.817z M29.409,185.013h1.631
				c0.248,0,0.511-0.009,0.789-0.027c0.277-0.018,0.529-0.071,0.754-0.16c0.224-0.089,0.411-0.227,0.559-0.417
				c0.147-0.189,0.222-0.455,0.222-0.798c0-0.319-0.065-0.573-0.195-0.763c-0.13-0.189-0.295-0.334-0.496-0.435
				c-0.201-0.1-0.432-0.168-0.692-0.204c-0.26-0.035-0.514-0.053-0.762-0.053h-1.809V185.013z"/>
			<path class="st1" d="M51.593,183.08c-0.272-0.331-0.606-0.585-1.002-0.763c-0.396-0.177-0.854-0.266-1.374-0.266
				s-1.002,0.101-1.445,0.302c-0.444,0.201-0.828,0.482-1.153,0.842c-0.325,0.361-0.579,0.789-0.763,1.286
				c-0.183,0.496-0.275,1.035-0.275,1.614c0,0.591,0.092,1.132,0.275,1.623c0.183,0.491,0.435,0.916,0.754,1.277
				c0.319,0.361,0.695,0.641,1.126,0.842c0.431,0.201,0.896,0.301,1.392,0.301c0.568,0,1.07-0.118,1.508-0.355
				c0.437-0.236,0.798-0.567,1.082-0.993l2.305,1.72c-0.532,0.745-1.206,1.295-2.022,1.649c-0.816,0.355-1.655,0.532-2.518,0.532
				c-0.981,0-1.886-0.154-2.713-0.461c-0.827-0.307-1.543-0.748-2.146-1.321c-0.603-0.573-1.073-1.268-1.41-2.084
				c-0.337-0.816-0.505-1.726-0.505-2.731c0-1.005,0.168-1.915,0.505-2.731c0.337-0.816,0.807-1.51,1.41-2.084
				c0.603-0.573,1.318-1.014,2.146-1.321c0.827-0.307,1.732-0.461,2.713-0.461c0.355,0,0.724,0.033,1.108,0.098
				c0.384,0.065,0.763,0.168,1.135,0.31c0.372,0.142,0.73,0.331,1.073,0.568c0.343,0.237,0.65,0.526,0.922,0.869L51.593,183.08z"/>
			<path class="st1" d="M54.856,186.094c0-1.005,0.168-1.915,0.505-2.731c0.337-0.816,0.807-1.51,1.41-2.084
				c0.603-0.573,1.318-1.014,2.146-1.321c0.827-0.307,1.732-0.461,2.713-0.461c0.981,0,1.886,0.154,2.713,0.461
				c0.827,0.308,1.543,0.748,2.146,1.321c0.603,0.574,1.073,1.268,1.41,2.084c0.337,0.816,0.506,1.726,0.506,2.731
				c0,1.005-0.169,1.915-0.506,2.731c-0.337,0.816-0.807,1.51-1.41,2.084c-0.603,0.574-1.318,1.014-2.146,1.321
				c-0.828,0.307-1.732,0.461-2.713,0.461c-0.981,0-1.886-0.154-2.713-0.461c-0.827-0.307-1.543-0.748-2.146-1.321
				c-0.603-0.573-1.073-1.268-1.41-2.084C55.024,188.01,54.856,187.099,54.856,186.094z M57.729,186.094
				c0,0.591,0.092,1.132,0.275,1.623c0.183,0.491,0.446,0.916,0.789,1.277c0.343,0.361,0.754,0.641,1.232,0.842
				c0.479,0.201,1.014,0.301,1.605,0.301c0.591,0,1.126-0.1,1.605-0.301c0.479-0.201,0.89-0.482,1.233-0.842
				c0.343-0.361,0.605-0.786,0.789-1.277c0.183-0.49,0.275-1.031,0.275-1.623c0-0.579-0.092-1.117-0.275-1.614
				c-0.183-0.497-0.446-0.925-0.789-1.286c-0.343-0.36-0.754-0.641-1.233-0.842c-0.479-0.201-1.014-0.302-1.605-0.302
				c-0.591,0-1.126,0.101-1.605,0.302c-0.479,0.201-0.89,0.482-1.232,0.842c-0.343,0.361-0.606,0.789-0.789,1.286
				C57.82,184.977,57.729,185.515,57.729,186.094z"/>
			<path class="st1" d="M70.284,179.817h3.759l5.338,8.725h0.035v-8.725h2.766v12.555h-3.617l-5.48-8.938H73.05v8.938h-2.766
				V179.817z"/>
			<path class="st1" d="M84.736,179.817h4.149c1.005,0,1.96,0.113,2.864,0.337c0.904,0.225,1.693,0.588,2.367,1.091
				c0.674,0.503,1.209,1.156,1.605,1.959c0.396,0.804,0.594,1.78,0.594,2.926c0,1.017-0.192,1.912-0.576,2.686
				c-0.384,0.775-0.902,1.425-1.552,1.951c-0.651,0.526-1.401,0.925-2.252,1.197c-0.851,0.272-1.744,0.408-2.678,0.408h-4.522
				V179.817z M87.503,189.819h1.436c0.638,0,1.233-0.065,1.782-0.195c0.55-0.13,1.025-0.346,1.427-0.647
				c0.402-0.302,0.718-0.697,0.949-1.188c0.231-0.491,0.346-1.091,0.346-1.8c0-0.615-0.115-1.15-0.346-1.605
				c-0.231-0.455-0.541-0.83-0.931-1.126c-0.39-0.295-0.848-0.517-1.374-0.665c-0.526-0.148-1.079-0.222-1.658-0.222h-1.631V189.819
				z"/>
			<path class="st1" d="M98.16,179.817h2.766v12.555H98.16V179.817z"/>
			<path class="st1" d="M105.874,182.264h-3.582v-2.447h9.93v2.447h-3.582v10.108h-2.766V182.264z"/>
			<path class="st1" d="M113.588,179.817h2.766v12.555h-2.766V179.817z"/>
			<path class="st1" d="M118.198,186.094c0-1.005,0.168-1.915,0.505-2.731c0.337-0.816,0.807-1.51,1.41-2.084
				c0.603-0.573,1.318-1.014,2.146-1.321c0.827-0.307,1.732-0.461,2.713-0.461c0.981,0,1.886,0.154,2.713,0.461
				c0.827,0.308,1.543,0.748,2.146,1.321c0.603,0.574,1.073,1.268,1.41,2.084c0.337,0.816,0.506,1.726,0.506,2.731
				c0,1.005-0.169,1.915-0.506,2.731c-0.337,0.816-0.807,1.51-1.41,2.084c-0.603,0.574-1.318,1.014-2.146,1.321
				c-0.828,0.307-1.732,0.461-2.713,0.461c-0.981,0-1.886-0.154-2.713-0.461c-0.827-0.307-1.543-0.748-2.146-1.321
				c-0.603-0.573-1.073-1.268-1.41-2.084C118.366,188.01,118.198,187.099,118.198,186.094z M121.071,186.094
				c0,0.591,0.092,1.132,0.275,1.623c0.183,0.491,0.446,0.916,0.789,1.277c0.343,0.361,0.754,0.641,1.232,0.842
				c0.479,0.201,1.014,0.301,1.605,0.301c0.591,0,1.126-0.1,1.605-0.301c0.479-0.201,0.89-0.482,1.233-0.842
				c0.343-0.361,0.605-0.786,0.789-1.277c0.183-0.49,0.275-1.031,0.275-1.623c0-0.579-0.092-1.117-0.275-1.614
				c-0.183-0.497-0.446-0.925-0.789-1.286c-0.343-0.36-0.754-0.641-1.233-0.842c-0.479-0.201-1.014-0.302-1.605-0.302
				c-0.591,0-1.126,0.101-1.605,0.302c-0.479,0.201-0.89,0.482-1.232,0.842c-0.343,0.361-0.606,0.789-0.789,1.286
				C121.162,184.977,121.071,185.515,121.071,186.094z"/>
			<path class="st1" d="M133.626,179.817h3.759l5.338,8.725h0.035v-8.725h2.766v12.555h-3.617l-5.48-8.938h-0.035v8.938h-2.766
				V179.817z"/>
			<path class="st1" d="M148.043,179.817h2.766v12.555h-2.766V179.817z"/>
			<path class="st1" d="M153.327,179.817h3.759l5.338,8.725h0.035v-8.725h2.766v12.555h-3.617l-5.48-8.938h-0.035v8.938h-2.766
				V179.817z"/>
			<path class="st1" d="M179.147,191.485c-0.816,0.426-1.667,0.733-2.553,0.922c-0.887,0.189-1.791,0.284-2.713,0.284
				c-0.981,0-1.886-0.154-2.713-0.461c-0.827-0.307-1.543-0.748-2.146-1.321c-0.603-0.573-1.073-1.268-1.41-2.084
				c-0.337-0.816-0.505-1.726-0.505-2.731c0-1.005,0.168-1.915,0.505-2.731c0.337-0.816,0.807-1.51,1.41-2.084
				c0.603-0.573,1.318-1.014,2.146-1.321c0.827-0.307,1.732-0.461,2.713-0.461c1.005,0,1.93,0.121,2.775,0.364
				c0.845,0.242,1.587,0.659,2.225,1.25l-1.951,2.128c-0.378-0.39-0.804-0.685-1.277-0.887c-0.473-0.201-1.064-0.302-1.774-0.302
				c-0.591,0-1.126,0.101-1.605,0.302c-0.479,0.201-0.89,0.482-1.232,0.842c-0.343,0.361-0.606,0.789-0.789,1.286
				c-0.183,0.496-0.275,1.035-0.275,1.614c0,0.591,0.092,1.132,0.275,1.623c0.183,0.491,0.446,0.916,0.789,1.277
				c0.343,0.361,0.754,0.641,1.232,0.842c0.479,0.201,1.014,0.301,1.605,0.301c0.603,0,1.123-0.068,1.561-0.204
				c0.437-0.136,0.786-0.275,1.046-0.417v-2.039h-2.252v-2.554h4.912V191.485z"/>
			<path class="st1" d="M190.957,179.817h2.288l5.462,12.555h-3.121l-1.082-2.66h-4.877l-1.046,2.66h-3.05L190.957,179.817z
				 M192.021,183.47l-1.525,3.901h3.068L192.021,183.47z"/>
			<path class="st1" d="M199.965,179.817h3.759l5.338,8.725h0.035v-8.725h2.766v12.555h-3.617l-5.48-8.938h-0.035v8.938h-2.766
				V179.817z"/>
			<path class="st1" d="M214.418,179.817h4.149c1.005,0,1.96,0.113,2.864,0.337c0.904,0.225,1.693,0.588,2.367,1.091
				c0.674,0.503,1.209,1.156,1.605,1.959c0.396,0.804,0.594,1.78,0.594,2.926c0,1.017-0.192,1.912-0.576,2.686
				c-0.384,0.775-0.902,1.425-1.552,1.951c-0.651,0.526-1.401,0.925-2.252,1.197c-0.851,0.272-1.744,0.408-2.678,0.408h-4.522
				V179.817z M217.184,189.819h1.436c0.638,0,1.233-0.065,1.782-0.195c0.55-0.13,1.025-0.346,1.427-0.647
				c0.402-0.302,0.718-0.697,0.949-1.188c0.231-0.491,0.346-1.091,0.346-1.8c0-0.615-0.115-1.15-0.346-1.605
				c-0.231-0.455-0.541-0.83-0.931-1.126c-0.39-0.295-0.848-0.517-1.374-0.665c-0.526-0.148-1.079-0.222-1.658-0.222h-1.631V189.819
				z"/>
			<path class="st1" d="M233.126,179.817h2.766v4.682h5.373v-4.682h2.766v12.555h-2.766v-5.426h-5.373v5.426h-2.766V179.817z"/>
			<path class="st1" d="M246.692,179.817h8.529v2.554h-5.763v2.341h5.444v2.554h-5.444v2.554h6.082v2.553h-8.849V179.817z"/>
			<path class="st1" d="M261.889,179.817h2.288l5.462,12.555h-3.121l-1.082-2.66h-4.877l-1.046,2.66h-3.05L261.889,179.817z
				 M262.953,183.47l-1.525,3.901h3.068L262.953,183.47z"/>
			<path class="st1" d="M271.695,182.264h-3.582v-2.447h9.93v2.447h-3.582v10.108h-2.766V182.264z"/>
			<path class="st1" d="M279.409,179.817h2.766v12.555h-2.766V179.817z"/>
			<path class="st1" d="M284.694,179.817h3.759l5.338,8.725h0.035v-8.725h2.766v12.555h-3.617l-5.48-8.938h-0.035v8.938h-2.766
				V179.817z"/>
			<path class="st1" d="M310.513,191.485c-0.816,0.426-1.667,0.733-2.553,0.922c-0.887,0.189-1.791,0.284-2.713,0.284
				c-0.981,0-1.886-0.154-2.713-0.461c-0.827-0.307-1.543-0.748-2.146-1.321c-0.603-0.573-1.073-1.268-1.41-2.084
				c-0.337-0.816-0.505-1.726-0.505-2.731c0-1.005,0.168-1.915,0.505-2.731c0.337-0.816,0.807-1.51,1.41-2.084
				c0.603-0.573,1.318-1.014,2.146-1.321c0.827-0.307,1.732-0.461,2.713-0.461c1.005,0,1.93,0.121,2.775,0.364
				c0.845,0.242,1.587,0.659,2.225,1.25l-1.951,2.128c-0.378-0.39-0.804-0.685-1.277-0.887c-0.473-0.201-1.064-0.302-1.773-0.302
				c-0.591,0-1.126,0.101-1.605,0.302c-0.479,0.201-0.89,0.482-1.232,0.842c-0.343,0.361-0.606,0.789-0.789,1.286
				c-0.183,0.496-0.275,1.035-0.275,1.614c0,0.591,0.092,1.132,0.275,1.623c0.183,0.491,0.446,0.916,0.789,1.277
				c0.343,0.361,0.754,0.641,1.232,0.842c0.479,0.201,1.014,0.301,1.605,0.301c0.603,0,1.123-0.068,1.561-0.204
				c0.437-0.136,0.786-0.275,1.046-0.417v-2.039h-2.252v-2.554h4.912V191.485z"/>
		</g>
	</g>
</g>
</svg>